# xmcd
#
# Track frame offsets:
#	150
#	20135
#	36503
#	55721
#	70139
#	89282
#	104675
#	124418
#	143336
#	157004
#	177272
#	203540
#	223958
#	236726
#
# Disc length: 3472 seconds
#
# Revision: 1
# Processed by: cddbd v1.5.2PL0 Copyright (c) Steve Scherf et al.
# Submitted via: audiograbber 1.83.01
#
DISCID=d00d8e0e
DTITLE=The Jacob's Gospel Singers - Jubilation
DYEAR=2011
DGENRE=Gospel
TTITLE0=Come Let Us Sing
TTITLE1=A Lovely Day
TTITLE2=I Believe
TTITLE3=On The Cross Of Calvary
TTITLE4=Lord, You Are Good
TTITLE5=The Road
TTITLE6=Route 66
TTITLE7=He Still Loves Me
TTITLE8=Joyful
TTITLE9=Wake Me, Shake Me
TTITLE10=Let Your Soul Be Your Pilot
TTITLE11=Spiritual-Medley
TTITLE12=Seasons Of Love
TTITLE13=Signs From Heaven
EXTD=
EXTT0=
EXTT1=
EXTT2=
EXTT3=
EXTT4=
EXTT5=
EXTT6=
EXTT7=
EXTT8=
EXTT9=
EXTT10=
EXTT11=
EXTT12=
EXTT13=
PLAYORDER=
